[img]http://northernwarriors.net/forum/uploads/images/1299408536-U111.jpg[/img]
[CODE]
Season.Of.The.Witch.PPV.XviD-EMBER
 
http://www.imdb.com/title/tt0479997

Plot
A 14th century Crusader returns to a homeland devastated by the Black Plague. 
A beleaguered church, deeming sorcery the culprit of the plague, commands the 
two knights to transport an accused witch to a remote abbey, where monks will 
perform a ritual in hopes of ending the pestilence. A priest, a grieving knight, 
a disgraced itinerant and a headstrong youth who can only dream of becoming a 
knight join a mission troubled by mythically hostile wilderness and fierce 
contention over the fate of the girl. When the embattled party arrives at the 
abbey, a horrific discovery jeopardises the knight's pledge to ensure the girl 
fair treatment, and pits them against an inexplicably powerful and destructive 
force.  

Source                           : PPV IFLIX Thanks guys!!
General
Format                           : AVI
Format/Info                      : Audio Video Interleave
Format profile                   : OpenDML
Format settings                  : rec
File size                        : 1.00 GiB
Duration                         : 1h 33mn
Overall bit rate                 : 1 531 Kbps
Writing application              : AVI-Mux GUI 1.17.8.3, Feb 16 201019:42:50

Video
ID                               : 0
Format                           : MPEG-4 Visual
Format profile                   : Advanced Simple@L5
Format settings, BVOP            : 2
Format settings, QPel            : No
Format settings, GMC             : No warppoints
Format settings, Matrix          : Custom
Codec ID                         : XVID
Codec ID/Hint                    : XviD
Duration                         : 1h 33mn
Bit rate                         : 1 395 Kbps
Width                            : 656 pixels
Height                           : 352 pixels
Display aspect ratio             : 1.864
Frame rate                       : 23.976 fps
Color space                      : YUV
Chroma subsampling               : 4:2:0
Bit depth                        : 8 bits
Scan type                        : Progressive
Compression mode                 : Lossy
Bits/(Pixel*Frame)               : 0.252
Stream size                      : 937 MiB (91%)
Writing library                  : XviD 58

Audio
ID                               : 1
Format                           : MPEG Audio
Format version                   : Version 1
Format profile                   : Layer 3
Mode                             : Joint stereo
Mode extension                   : MS Stereo
Codec ID                         : 55
Codec ID/Hint                    : MP3
Duration                         : 1h 33mn
Bit rate mode                    : Constant
Bit rate                         : 128 Kbps
Channel(s)                       : 2 channels
Sampling rate                    : 44.1 KHz
Compression mode                 : Lossy
Stream size                      : 85.9 MiB (8%)
Alignment                        : Aligned on interleaves
Interleave, duration             : 26 ms (0.63 video frame)
Interleave, preload duration     : 182 ms
Writing library                  : LAME3.98.2
[/CODE]
Screens:
[img]http://northernwarriors.net/forum/uploads/images/1299408563-U111.png[/img]
[img]http://northernwarriors.net/forum/uploads/images/1299408586-U111.png[/img]
[img]http://northernwarriors.net/forum/uploads/images/1299408624-U111.png[/img]